<?xml version="1.0" standalone="no"?><svg xmlns="http://www.w3.org/2000/svg" viewBox="0 0 1440 320"><path fill="#000" fill-opacity="1" d="M0,288L20,282.7C40,277,80,267,120,245.3C160,224,200,192,240,186.7C280,181,320,203,360,197.3C400,192,440,160,480,144C520,128,560,128,600,144C640,160,680,192,720,213.3C760,235,800,245,840,250.7C880,256,920,256,960,240C1000,224,1040,192,1080,202.7C1120,213,1160,267,1200,266.7C1240,267,1280,213,1320,202.7C1360,192,1400,224,1420,240L1440,256L1440,320L1420,320C1400,320,1360,320,1320,320C1280,320,1240,320,1200,320C1160,320,1120,320,1080,320C1040,320,1000,320,960,320C920,320,880,320,840,320C800,320,760,320,720,320C680,320,640,320,600,320C560,320,520,320,480,320C440,320,400,320,360,320C320,320,280,320,240,320C200,320,160,320,120,320C80,320,40,320,20,320L0,320Z"></path></svg>